<?xml version="1.0" encoding="UTF-8"?>
<svg id="Layer_1" xmlns="http://www.w3.org/2000/svg" version="1.1" viewBox="0 0 447.12 801.63">
  <!-- Generator: Adobe Illustrator 30.6.0, SVG Export Plug-In . SVG Version: 2.1.4 Build 109)  -->
  <defs>
    <style>
      .st0 {
        fill: #020202;
      }

      .st1 {
        fill: #439d17;
      }
    </style>
  </defs>
  <g>
    <path class="st1" d="M98.72,61.57c.03.31.06.62.1.92.19,1.52.53,2.9.95,3.91.55,1.32,1.37,2.5,2.38,3.52.25.25.52.5.79.73,1.64,1.4,3.66,2.43,5.75,2.99,1.75.47,3.55.62,5.25.41,1.13-.14,1.33-1.69.97-3.03-.07-.27-.17-.53-.28-.76-.23-.48-.53-.87-.9-1.07,2.05-.51,3.01-2.1,3.16-4.07.03-.33.03-.67,0-1.01s-.06-.7-.12-1.06c-.12-.72-.32-1.45-.59-2.17-.27-.72-.61-1.44-1-2.12-.79-1.36-1.82-2.59-3-3.48-.52-.39-1.17-.83-1.91-1.25-2.68-1.55-6.43-2.97-8.83-1.77-.44.22-.83.52-1.16.93-.15.18-.29.38-.41.59-.25.42-.46.91-.64,1.43-.26.79-.43,1.66-.52,2.58-.06.61-.09,1.24-.1,1.88,0,.63.03,1.27.08,1.89Z"/>
    <path class="st1" d="M308.65,72.16h0c0,.76.01,1.51.04,2.26.04,1.12.11,2.24.24,3.33.09.73.2,1.45.35,2.15.07.35.16.7.25,1.05.73,2.76,2.05,5.29,4.42,7.38l7.86-3.39c2.85-1.23,5.49-2.91,7.73-4.95,3.14-2.86,5.52-6.42,6.64-10.44.64-2.3.87-4.74.6-7.29l-4.09-16-7.39,3.08c-4,1.08-7.34,3.03-9.96,5.62-.44.43-.85.88-1.25,1.35-3.56,4.19-5.46,9.73-5.45,15.86Z"/>
    <path class="st1" d="M164.37,35.42c.21,2.12.8,4.18,1.72,6.12.31.65.65,1.28,1.03,1.9,1.14,1.86,2.59,3.57,4.31,5.09,1.15,1.01,2.42,1.93,3.81,2.74.69.4,1.41.78,2.15,1.13,1.49.7,3.08,1.27,4.76,1.71.41-.6.81-1.21,1.2-1.82.77-1.23,1.48-2.48,2.12-3.78.97-1.95,1.79-4,2.46-6.2.45-1.47.83-3.01,1.14-4.63h0c-.12-.98-.3-1.93-.53-2.84-.35-1.37-.83-2.65-1.42-3.85-2.16-4.39-5.84-7.62-10.48-9.47-.92-.37-1.76-.7-2.6-1.09s-1.67-.81-2.59-1.36c-.61-.36-1.26-.78-1.97-1.27-.63,3.35-2.54,5.74-3.85,9.01-.29.72-.53,1.44-.72,2.16-.1.36-.18.72-.26,1.08-.22,1.08-.34,2.16-.36,3.24-.01.72.02,1.43.09,2.13Z"/>
    <path class="st1" d="M285.86,41.36c1.05-.04,1.99-.21,2.86-.49,2.61-.85,4.57-2.68,6.88-4.7,1.17-1.03,2.16-2.17,2.95-3.4.53-.82.97-1.67,1.33-2.55,1.96-4.84,1.31-10.43-2.1-14.88-1.85-2.41-2.56-4.38-3.51-7.68-4.83,3.43-9.93,6.48-12.4,11.21-2.64,5.06-2.12,10.97.09,16.11,1,2.34,2.36,4.52,3.92,6.39Z"/>
    <path class="st1" d="M134.34,37.89c.37,1.12.85,2.2,1.44,3.21.58,1.02,1.27,1.97,2.04,2.86.39.44.79.87,1.22,1.27,3,2.83,7.01,4.69,11.5,5.04.64.05,1.29.07,1.95.06,2.58-3.29,3.79-7.31,3.71-11.21-.02-.87-.1-1.73-.25-2.57-.15-.85-.35-1.68-.62-2.49-.41-1.21-.95-2.37-1.64-3.44-.47-.74-1-1.4-1.57-2.01-1.44-1.52-3.2-2.67-5.16-3.55-3.53-1.58-7.71-2.3-11.88-2.76h0c.09.42.13.85.14,1.28s-.03.86-.09,1.29c-.26,1.94-1.07,3.91-1.45,5.82-.13.64-.21,1.27-.21,1.89,0,.62.04,1.23.1,1.83.13,1.2.39,2.37.76,3.5Z"/>
    <path class="st1" d="M321.59,44.11c.17.11,8.88.61,12.14-5.89.23-.47.44-1.06.59-1.73.15-.67.25-1.4.29-2.16.01-.25.02-.5.01-.76,0-.25-.02-.51-.04-.76-.08-1-.3-1.96-.7-2.76-.2-.4-.44-.75-.74-1.05-.29-.3-.64-.53-1.04-.7-.44-.18-.88-.29-1.33-.34-1.12-.13-2.26.1-3.33.53-1.5.6-2.86,1.58-3.84,2.49-.28.26-.53.52-.74.76-.74.84-1.27,1.98-1.62,3.24-.62,2.2-.7,4.75-.49,6.6.15,1.32.46,2.29.83,2.52Z"/>
    <path class="st1" d="M345.1,71.09c.31.34.65.65,1.02.95,2.21,1.01,5.07.9,7.96.12.96-.26,1.93-.6,2.87-.99,2.36-.99,4.61-2.35,6.37-3.83,1.06-.89,1.95-1.82,2.59-2.74,2.63-3.78,3.43-8.15,3.37-12.13,0-.33-.01-.66-.03-.99s-.04-.65-.06-.97c-.18-2.24-.59-4.29-1.05-5.97-.06-.24-.13-.47-.2-.7-.13-.45-.26-.86-.39-1.24-.52-1.51-.97-2.43-1.09-2.46-.21-.06-.52.05-.87.22-.35.17-.73.39-1.07.55-.11.05-.22.1-.32.13-.1.03-.19.06-.27.06-2.54.19-4.92.62-7.09,1.31-.43.14-.86.29-1.28.45-.83.32-1.64.68-2.4,1.09-3.06,1.63-5.53,3.98-7.29,7.17-.6,1.09-1.17,2.34-1.67,3.68-.33.9-.63,1.83-.89,2.79-1.01,3.84-1.24,8.03.28,11.27.38.81.87,1.56,1.49,2.23Z"/>
    <path class="st1" d="M193.6,49.18c.57,2.17,1.35,4.33,2.32,6.41,1.7,3.63,3.99,7.03,6.77,9.88,3.18,3.25,7.02,5.79,11.37,7.14,1.68-1.8,3.34-3.67,4.89-5.61.93-1.17,1.82-2.36,2.64-3.58.55-.82,1.08-1.64,1.57-2.49.74-1.27,1.4-2.56,1.98-3.9.57-1.33,1.05-2.7,1.42-4.11.6-2.31.92-4.62.96-6.88.09-4.53-.88-8.89-2.77-12.84-.63-1.31-1.36-2.58-2.18-3.79-2.06-3.03-4.71-5.7-7.86-7.87-.42-.29-.83-.58-1.22-.87-1.18-.88-2.26-1.77-3.32-2.74-1.41-1.29-2.8-2.72-4.38-4.42-.84,1.35-1.33,2.76-2,3.98-.4.73-.86,1.39-1.49,1.92-.84.7-1.57,1.45-2.23,2.24-1.65,1.96-2.85,4.14-4.09,6.37-.25.45-.5.89-.76,1.34-.96,1.69-1.66,3.54-2.12,5.51-.23.98-.39,2-.5,3.03s-.15,2.09-.14,3.15c.01,1.07.08,2.15.2,3.23.19,1.63.5,3.27.92,4.9Z"/>
    <path class="st1" d="M118.6,381.9c12.82,5.33,25.79,2.08,33.85-8.38,3.75-4.87,8.87-11.08,7.8-17.94-5.23-4.84-14.68-7.34-22.19-7.23-9.94.15-19.04,6.2-22.84,14.88l-6.75,15.41c3.81.25,6.57,1.78,10.12,3.26Z"/>
    <path class="st1" d="M34.78,230.99c7.93-1.8,15.73-4.52,20.61-11.44-2.39-4.82-5.06-8.94-8.21-12.47-10.08-11.29-25.18-11.42-37.34-3.15l-9.84,6.69c3,1.99,5.08,5.29,6.89,8.57,4.93,8.96,10.98,9.08,18.45,11.98,4.11,1.6,6,.6,9.44-.18Z"/>
    <path class="st1" d="M296.23,379.64c-4.5-.4-9.04-1.46-13.37.39-2.74,1.17-5.18,2.27-7.78,2.6l3.44,12.98c2.28,8.58,8.93,15.76,17.9,18.05,5.54,1.41,12.15.79,17.82-.56l9.13-2.17c-1.22-3.82-2.06-7.47-3.01-11.14-2.98-11.55-12.4-19.1-24.13-20.14Z"/>
    <path class="st1" d="M378.08,93.94c-.29.32-.57.65-.85.99-.55.67-1.06,1.37-1.54,2.1-.24.36-.47.73-.69,1.11-.89,1.5-1.64,3.11-2.25,4.79-1.69,4.63-2.35,9.89-2.01,15.4l.47,7.7c10.65.93,21.59-.63,29.35-8.41,5.35-5.35,8.53-13.73,8.22-21.26-.08-1.96-.55-3.78-.83-5.67-.11-.71-.19-1.43-.21-2.16-.02-.74,0-1.5.13-2.29.08-.53.2-1.07.36-1.62-.62-.2-1.23-.35-1.84-.45-2.44-.41-4.8-.09-7.17.39-.3.06-.59.12-.89.19-1.48.32-2.97.67-4.49.93-1.04.17-2.04.39-3.01.65-4.35,1.16-7.98,3.15-10.91,5.78-.65.58-1.27,1.2-1.85,1.84Z"/>
    <path class="st1" d="M264.45,73.88c-.72-1.16-1.5-2.27-2.33-3.31-.28-.35-.56-.69-.85-1.02-.58-.66-1.18-1.29-1.8-1.88-.31-.29-.62-.58-.94-.85-1.22-1.04-2.49-1.89-3.72-2.74-1.64-1.13-3.21-2.26-4.47-3.85-.31-.4-.61-.82-.88-1.29l-3.9,6.79c-4.51,5.23-7.13,11.54-7.61,17.94-.06.85-.09,1.71-.08,2.56.02,1.28.12,2.56.32,3.83.06.42.14.84.22,1.26.17.84.38,1.67.63,2.5,1.12,3.72,3.07,7.28,5.89,10.46,3.37,3.8,7.96,8.56,12.98,9.65,7.98-2.93,12.48-19.35,10.87-28.98-.62-3.71-2.17-7.61-4.32-11.08Z"/>
    <path class="st1" d="M130.43,93.13c.61.59,1.25,1.16,1.93,1.7,4.12,3.33,8.75,5.89,13.36,8.34,2.92-3.34,5.01-7.77,6.25-12.51.83-3.16,1.29-6.45,1.37-9.65.02-.8.02-1.59-.01-2.38-.14-3.92-.87-7.6-2.19-10.58-3.65-8.2-7.99-10.87-12.86-13.7-.93-.54-1.87-1.08-2.84-1.68-.48-.3-.97-.6-1.46-.93-1.23-.81-2.48-1.72-3.76-2.81l-2.49,5.24-2.49,5.24c-.73,1.55-1.34,3.12-1.82,4.71-.24.8-.45,1.59-.63,2.4-.35,1.6-.58,3.21-.68,4.82-.05.8-.07,1.6-.05,2.4.14,7.18,2.89,14.07,8.37,19.36Z"/>
    <path class="st1" d="M52.98,317.4c7.56-3.56,12.8-9.76,16.45-17.61-13.84-12.33-26.85-15.96-41.62-3.88l-9.47,14.27c2.83,1.54,4.98,2.74,7.14,4.5,7.74,6.36,17.82,7.28,27.5,2.72Z"/>
    <path class="st1" d="M77,119.27l-11.63.83,1.93,16.01c1.48,12.28,23.42,24.75,35.88,17.27,1.69-4.37.79-9.59-.12-14.3-2.41-12.34-13.54-20.71-26.05-19.82Z"/>
    <path class="st1" d="M58.62,85.53c.06,1.15.09,2.24.13,3.3.02.53.04,1.05.06,1.56.12,2.82.36,5.41,1.31,8.04.17.48.37.96.59,1.44.78,1.69,1.89,3.4,3.48,5.23,7.34,8.4,19.62,12.3,30.59,8.8.56-3.54.66-7.02.33-10.33-.09-.95-.22-1.88-.39-2.79-.16-.91-.36-1.81-.6-2.69-.7-2.63-1.7-5.09-3-7.29-.65-1.1-1.37-2.14-2.17-3.1-1.06-1.29-2.25-2.44-3.56-3.45-.33-.25-.66-.49-1.01-.72-.69-.46-1.4-.89-2.15-1.27-.37-.19-.75-.37-1.14-.54-.78-.34-1.58-.63-2.42-.88-.84-.25-1.7-.45-2.59-.6-3.83-.66-7.53-.57-11.25-.42-2.23.09-4.47.21-6.75.2h0c.3,1.98.45,3.81.54,5.53Z"/>
    <path class="st1" d="M74.52,287.9l3.32,3.46c3.91,4.09,7.53,8.94,13.64,10.71,12.69,3.66,24.68-1.8,32.06-11.67-2.69-5.13-6.1-8.35-10.31-11.59-9.4-7.21-22.71-6.03-30.96,2.57-2.44,2.54-4.62,4.43-7.75,6.51Z"/>
    <path class="st1" d="M393.22,173.52c-1.5,2.62-4.13,7.12-1.43,10.14,2.27,2.53,7.67,3.62,11.16,4.25,14.53,2.65,26.82-6.9,28.86-21.41.32-2.25,2.21-3.81,2.02-6.14-4.04.5-6.54-1.18-10.04-1.83-14.91-2.8-23.35,2.42-30.56,15Z"/>
    <path class="st1" d="M232.3,36.89c.16.21.32.43.48.65.49.66.99,1.35,1.52,2.04,1.59,2.08,3.39,4.16,5.54,5.46.72.43,1.48.78,2.28,1,2.26.64,4.04-.71,5.57-2.41.51-.57.99-1.18,1.44-1.76.61-.78,1.18-1.53,1.74-2.09,1.5-1.53,2.71-3.2,3.65-4.96,3.98-7.38,3.43-16.19,1.43-21.35-.38-.98-.82-1.83-1.29-2.52-.12-.17-.24-.33-.36-.48-.12-.15-.24-.29-.37-.41l-9.79-10.06-8.24,8.04c-5.05,4.93-7.89,11.36-7.63,17.74.05,1.28.23,2.55.54,3.81.61,2.52,1.75,4.99,3.47,7.29Z"/>
    <path class="st1" d="M369.94,349.67c-4.13-4.85-6.98-10.09-12.15-13.12-6.29-3.69-13.35-5.83-20.37-3.8-3.63,1.05-7.5,2.17-10.65,4.14-1.87,1.17-2.9,3.09-5.87,3.77,4.23,10.43,13.62,18.54,25.25,19.22,5.04.3,10.29-1.58,14.33-4.17l9.45-6.05Z"/>
    <path class="st1" d="M322.35,90.53c-14.28,8.74-14.69,26.3-4.55,39.64,10.87-4.21,17.11-11.7,20.57-21.72.87-3.25,1.5-7.66.13-10.84l-5.8-13.42-10.36,6.34Z"/>
    <path class="st1" d="M163.12,412.22l-2.02,15,14.31-.15c13.81-.14,21.94-15.87,19.29-30.67-13.2-3.63-27.32,2.55-31.59,15.82Z"/>
    <path class="st1" d="M380.67,313.05c1.51,11.01,8.05,21.28,18.74,24.41,7.17,2.1,14.35.67,21.9-1.89l-4.99-13.86c-4.07-11.29-21.7-15.24-35.65-8.66Z"/>
    <path class="st1" d="M319.13,377.55c3.48-.76,6.32-1.92,9.82-1.57-1.67-1.99-1.73-3.44-1.93-5.86-.66-8.08-5.69-15.03-11.52-18.28-7.74-4.32-15.44-4.66-23.97-1.39-1.41,3.29.03,7.09,1.09,10.98,3.15,11.54,14.05,18.86,26.5,16.13Z"/>
    <path class="st1" d="M211.52,132.25c8.49-3.86,14.99-12.19,15.47-22.1.36-7.43-3.98-11.64-7.77-16.35-1.26-1.57-2.47-3.2-3.42-5.02-.61.74-1.22,1.42-1.86,2.06-1.9,1.91-3.94,3.42-6.16,5.01-9.39,6.7-11.44,18.88-4.49,28.01,2.38,3.12,4.46,6.01,8.22,8.37Z"/>
    <path class="st1" d="M441.98,266.16c-4.2-4.5-8.72-8.75-15.32-9.72-8.74-1.28-19.92,3.52-23.84,11.37,4.19,11.73,23.27,18.65,33.22,11.64l11.07-7.8-5.13-5.5Z"/>
    <path class="st1" d="M283.79,154.25c6.07-.6,11.79-1.61,16.61-5.06,7.63-5.46,9.84-13.82,7.91-22.39l-2.39-10.6c-4.67,2.94-11.97,2.4-17.13,6.76-9.14,7.73-10.85,21.18-4.99,31.29Z"/>
    <path class="st1" d="M92.17,221.35c.03-10.37-6.05-20.86-15.48-24.54-6.73-2.62-13.82-.44-20.59.47,1.03,5.41,1.56,10.12,3.64,15.23,4.65,11.44,20.48,15.18,32.42,8.83Z"/>
    <path class="st1" d="M54.03,162.23c8.52-.52,9.37-2.32,16.08-4.52-1.88-6-3.77-12.57-8.43-17.29-6.36-6.44-16.96-6.47-24.42-2.2-2.36,1.35-4.09,1.83-6.97,2.9,1.69,2.94,2.35,5.58,3.41,8.28,3.38,8.56,11.13,13.39,20.32,12.83Z"/>
    <path class="st1" d="M110.94,352.51c-7.65-2.28-15.43-2.42-22.25,1.33-6.49,3.56-9.04,11.09-9.94,18.22l-.88,6.99,11.75,1.09c14.03-1.63,22.6-14.61,21.31-27.63Z"/>
    <path class="st1" d="M333.76,324.05c8.12-2.14,15.54-12.03,15.28-12.21l-1.54-1.08c-6.93-11.2-20.55-13.91-31.18-6.29-2.97,2.13-5.71,3.99-7.22,7.72,4.88,8.78,14.56,14.51,24.65,11.86Z"/>
    <path class="st1" d="M185.42,292.89c-6.98-5.27-15.05-4.71-22.74-1.06l-7.65,3.62c5.92,8.03,7.13,16.25,20.02,17.69,7.69.86,14.45-1.61,19.76-6.5-2.62-5.32-4.93-10.38-9.39-13.75Z"/>
    <path class="st1" d="M274.38,80.81c.51,1.29.85,3.11,1.57,4.69s1.83,2.95,3.86,3.35c.91.18,2.11,0,3.47-.47.54-.19,1.11-.43,1.7-.71.88-.43,1.79-.95,2.71-1.57.61-.41,1.23-.87,1.84-1.36.3-.25.61-.5.91-.77.6-.53,1.19-1.1,1.76-1.7,1.14-1.2,2.19-2.54,3.09-3.98.67-1.09,1.26-2.23,1.73-3.44.31-.8.57-1.63.77-2.47.3-1.27.46-2.58.45-3.93-.01-2.25-.5-4.6-1.59-7.01l-4.74-10.43-6.4,3.59c-7.68,4.31-12.34,11.19-12.52,18.64-.06,2.49.38,5.04,1.37,7.57Z"/>
    <path class="st1" d="M288.08,331.93c-3.9-12.09-17.63-17.69-29.53-13.19-.97,5.62.2,11.09,2.79,16.06,3.42,6.54,10.27,10.54,17.64,9.67l10.91-1.28-1.81-11.26Z"/>
    <path class="st1" d="M187.39,66.72c-.42.5-.84,1.02-1.26,1.6-1.74,2.39-2.87,5-3.45,7.67-.72,3.34-.57,6.79.35,10.06.74,2.61,1.97,5.11,3.65,7.34,1.26,1.68,2.77,3.2,4.51,4.52,1.78,1.35,3.07,2.5,5.2,2.3,4.24-.42,16.78-19.56,3.68-31.1l-8.95-7.88c-.39.86-.8,1.58-1.21,2.23s-.82,1.21-1.24,1.73c-.42.53-.84,1.02-1.26,1.52Z"/>
    <path class="st1" d="M88.53,264.98c-3.33-4.71-7.55-9.43-13.58-11.75-11.35-4.36-17.5,3.69-26.11,10.31l10.87,9.96c6.14,5.63,21.97,2.01,28.83-8.52Z"/>
    <path class="st1" d="M395.96,232.6l9.29-9.04c-3.82-.68-5.13-3.76-7.68-5.97-12.23-10.6-30.51.88-30.82,7.07-.29,5.82,18.7,18.18,29.22,7.94Z"/>
    <path class="st1" d="M328.23,278.05l5.09-10.29c-7.11-3.52-13.63-6.12-20.73-3.95-8.08,2.47-13.5,9.16-16.01,17.5,11.54,8.4,26.45,7.25,31.65-3.26Z"/>
    <path class="st1" d="M257.29,353.08c-1.65,8.52,5.52,17.92,12.66,20.65l6.92,2.64c4.17-1.49,7.66-2.2,12.26-2.38l-2.63-11.5c-2.42-10.59-19.05-16.88-29.21-9.4Z"/>
    <path class="st1" d="M343.26,140.08c5.52-1.3,11.18-3.47,15.01-7.94,5.08-5.92,5.4-12.58,3.14-19.41l-2.48-7.5c-8.42,2.43-15.81,6.21-18.68,14.18-2.61,7.26-1.45,14.61,3.01,20.66Z"/>
    <path class="st1" d="M419.8,226.21c-5.95.91-11.19,5.12-14.87,9.18l6.49,7.34c5.6,6.33,15.32,8.43,22.4,2.68l8.67-7.05-3.72-5.02c-4.49-6.06-11.29-8.3-18.97-7.13Z"/>
    <path class="st1" d="M386.87,301.53c-2.27-1.85-3.53-4.03-5.05-6.08-7.93-10.74-24.22-9.85-31.62-.14-.91,3.25,3,6.53,4.91,8.68,5.2,5.85,13.41,8.54,20.16,4.5l11.6-6.95Z"/>
    <path class="st1" d="M112.63,108.56c-2.64-.45-4.98-.34-8.2-1.33-.78,5.09-2.7,10.94-.81,16.24,3.94,11.09,18.19,16.74,22.56,12.42,1.04-1.03,1.33-3.09,1.68-5.39,1.66-11.01-4.63-20.14-15.22-21.95Z"/>
    <path class="st1" d="M76.97,167.09l-6.83,1.93,3.63,10.51c5.76,10.11,19.09,12.18,29.14,6.26-1.11-4.8-2.52-9.77-5.76-13.79-4.87-6.05-12.95-6.95-20.17-4.91Z"/>
    <path class="st1" d="M166.93,378.06c-7.14-3.96-19.71,3.39-21.56,10.89-1.51,6.12-.24,10.43-.28,16.88,4.02-.84,7.96-.33,12.92-2.66,8.63-4.06,14.75-16.97,8.92-25.11Z"/>
    <path class="st1" d="M305.96,214.02c-4.69,5.63-6.3,12.86-4.77,20.1,13.2,2.63,25.05-5.56,24.84-15.89l-.21-10.55c-7.77.23-15.06.57-19.87,6.35Z"/>
    <path class="st1" d="M70.89,189.82c.4-3.76-.75-6.89-2.04-10.57-4.43-12.6-15.24-12.76-27.91-9.7,1.85,3.72,2.03,6.73,1.57,10.01,7.17,10.55,14.79,13.77,28.39,10.26Z"/>
    <path class="st1" d="M305.63,94.56l-.54-10.69-7.32,1.96c-2.2.59-4.15,1.47-5.85,2.61-2.04,1.37-3.74,3.1-5.11,5.14-.46.68-.88,1.39-1.27,2.14-.58,1.12-1.09,2.31-1.52,3.56-1.7,4.94-3.54,11.17.41,15.46,11.17.7,21.8-8.38,21.2-20.18Z"/>
    <path class="st1" d="M411.14,133.48c-5.83,2.95-10.6,10.75-10,17.61,2.24,3.68,9.53,3.7,13.3,2.73l7.3-1.88c6.52-3.85,9.48-10.88,9.92-17.28-7.6-2.31-13.88-4.53-20.51-1.17Z"/>
    <path class="st1" d="M161.2,280.29c-1.42-3.34-3.97-5.27-6.7-7.39-6.12-4.74-14.71-5.28-20.76,0l-7.78,6.8,9.1,8.48c11.75,7.11,28.27-2.88,26.14-7.89Z"/>
    <path class="st1" d="M108.39,335.48c5.29-2.1,11.17-7.62,11.79-13.31-6.53-8.82-20.34-9.52-27.23-1.25l-6.57,10.41c7.27,3.43,14.25,7.22,22.01,4.14Z"/>
    <path class="st1" d="M144.96,214.14l-9.8,1.47,2.27,9.09c6.5,16.31,27.34,15.13,27.77,9.89.28-3.44-1.12-5.94-1.86-8.68-2.09-7.8-9.66-13.07-18.37-11.77Z"/>
    <path class="st1" d="M363.31,92.04c.35-1.2.55-2.46.58-3.78,0-.33,0-.66-.01-.99-.06-1.34-.3-2.72-.73-4.15l-2.66-8.83c-2.42.67-4.8,1.45-7,2.43-.88.39-1.73.82-2.55,1.28-.41.23-.8.47-1.19.72-2.32,1.5-4.24,3.35-5.52,5.71-.43.79-.78,1.63-1.05,2.53-2.03,6.74-1.67,13.22,2.12,18.91,8.84-1.88,15.98-6.92,18.01-13.84Z"/>
    <path class="st1" d="M100.13,92.71c.27.63.56,1.24.89,1.83.65,1.18,1.41,2.27,2.28,3.26,3.48,3.97,8.63,6.35,14.74,6.37,2.58,0,4.95-.82,6.14-2.41,1.33-1.79.64-4.19.25-6.59-.84-5.1-3.23-9.12-6.66-11.73-.86-.65-1.78-1.22-2.76-1.69-.49-.23-1-.45-1.51-.63-2.59-.94-5.52-1.27-8.65-.9-.49.06-1.12.08-1.79.11-1,.05-2.08.11-2.93.33s-1.46.59-1.52,1.25c-.07.8-.11,1.58-.11,2.35,0,3.08.58,5.93,1.64,8.45Z"/>
    <path class="st1" d="M163.17,77.09c.32.35.65.7.99,1.03.51.5,1.03.97,1.57,1.4.36.29.73.56,1.1.81.74.5,1.5.92,2.26,1.24,1.71.72,3.44.92,5.02.34.53-.19,1.35-1.2,2.16-2.74.12-.22.23-.45.35-.69.23-.48.46-1.01.68-1.56.11-.28.21-.57.32-.86.2-.59.4-1.21.56-1.86.93-3.55,1.23-7.83-.26-11.79-1.08-2.88-3.11-5.57-6.52-7.69-1.28-.79-2.54-1.39-3.78-2.11-1.24-.72-2.47-1.55-3.7-2.81-4.37,6.18-7.54,13.07-4.96,20.47.77,2.2,2.3,4.68,4.21,6.81Z"/>
    <path class="st1" d="M217.59,195.55l-9.37-6.51-4.8,8.53c-6.49,11.53,7.74,28.24,13.23,25.04,3.17-1.85,4.18-5.21,5.43-8.19,2.73-6.5,1.46-14.73-4.49-18.86Z"/>
    <path class="st1" d="M329.1,255.41c.07.32.57.64.85.85.8,1.72,2.81,3.48,4.48,4.91,7.05,6.03,17,5.75,23.42-1.19l5.49-5.94c-3.85-3.97-7.75-8.57-13.5-9.61-10.75-1.95-21.49,7.52-20.74,10.97Z"/>
    <path class="st1" d="M367.19,173.17c6.79,5.55,19.56,3.13,24.17-4.78,2.87-4.92,3.21-9.38,4.06-13.76-6.63-1.23-11.97-2.54-17.78.45-5.68,2.92-11.62,11.19-10.45,18.09Z"/>
    <path class="st1" d="M129.83,392.81c-13.81,4.45-14.36,13.68-12.34,27.35,14.04.69,24.76-13.39,21.01-24.21-1.51-4.36-5.5-4.16-8.67-3.14Z"/>
    <path class="st1" d="M374.57,363.43c-4.88-3.21-15.97-3.66-19.06,1.78-1.48,5.7,4.98,13.06,9.59,15.77,5.54,3.26,12.18,1,18.45.75.71-8.3-2.78-14.21-8.98-18.3Z"/>
    <path class="st1" d="M49.53,241.48c10.59,9.95,27.17,2.06,25.12-3.08-2.05-5.13-6.54-10.19-12.01-11.72-6.87-1.92-13.49,1.03-19.21,5.8l6.1,9Z"/>
    <path class="st1" d="M95.97,388.28c-3.11,2.9-4.55,7.09-7.03,11.32,4.61,3.47,9.88,5.54,16.77,4.57,7.8-1.1,12.94-7.8,14.47-14.8-7.57-6.25-17.36-7.47-24.21-1.08Z"/>
    <path class="st1" d="M41.19,189.35c-2.11-3.98-3.87-7.51-6.88-10.53-5.25-5.26-13.54-5.13-19.27-.68-2.03,1.57-3.8,2.59-5.82,3.32,1.8,3.23,3.09,5.68,5.24,8.39,6.44,8.12,17.7,6.92,26.73-.5Z"/>
    <path class="st1" d="M343.74,394.98c-.22-4.17-.62-7.46-4.67-10.28-4.23-2.95-12.8-5.38-17.71-2.02-3.62,8.15,3.06,19.25,11.55,21.18,4.68,1.06,8.54.36,13.19.32l-1.77-4.08c1.45-2.41-.52-4.03-.58-5.12Z"/>
    <path class="st1" d="M322.11,134.41c-9.05,2.51-13.97,12.45-11.8,21.44,5.38,1.64,11.57,1.73,16.51-1.32,4.58-2.82,7.16-7.53,7.19-12.3l.04-7.92c-4.09-.11-8.02-.98-11.94.11Z"/>
    <path class="st1" d="M93.31,343.89c-6.8-9.35-18.72-12.63-25.5-6.01l-6.92,6.76c5.19,6.64,11.95,11.07,19.94,8.38,5.06-1.7,9.73-3.81,12.48-9.14Z"/>
    <path class="st1" d="M384.29,206.11c3.53,4.83,14.23,5.77,19.51,2.75,5.82-3.33,7.33-8.28,9.6-13.97-3.76-1.71-6.84-4.74-11.67-4.72-7.79.03-17.69,7.39-17.44,15.95Z"/>
    <path class="st1" d="M306.97,184.16c4.64,3.36,12.9-1.26,16.13-4.4,7.85-7.6,4.3-20.63,4.45-20.66l-2.14.43c-6.37,1.27-12.36,2.45-15.81,7.89-2.51,3.96-6.4,12.44-2.63,16.74Z"/>
    <path class="st1" d="M259.63,54.18c1.01,2.1,2.34,4.03,3.82,5.46,1.91,1.84,5.68-.51,6.81-2.68,8.31-6.26,8.52-16.8,1.7-23.9-.05-.28-.16-.59-.31-.91-.1-.21-.22-.43-.36-.65-.07-.11-.14-.21-.21-.32-.15-.21-.31-.41-.47-.6-.5-.56-1.06-.98-1.55-1.05-.16-.02-.32,0-.46.05-2.07.97-3.89,2.2-5.41,3.65-.91.87-1.72,1.83-2.42,2.87-.7,1.04-1.28,2.15-1.75,3.35-.16.4-.3.8-.43,1.22-.52,1.66-.83,3.45-.92,5.37-.01.28-.01.56,0,.84.07,2.29.81,4.9,1.96,7.29Z"/>
    <path class="st1" d="M386.81,271.45l8.23-7.62c-4.2-5.25-9.76-9.1-16.54-8.71-6,.34-11.96,3.58-15.46,9.38,6.01,8.58,17.48,12.77,23.77,6.95Z"/>
    <path class="st1" d="M27.8,275.87c-.23.55-2.7,1.16-2.03,1.57,2.95,1.84,4.97,10.27,17.28,8.95,5.95-.64,9.06-1.63,14.1-7.5-3.1-5.08-7.89-9.98-13.94-10.91-6.94-1.07-12.92,1.98-15.41,7.88Z"/>
    <path class="st1" d="M407.52,291.1l5.22-3.43c-2.83-3.82-5.67-8.46-10.66-10.62-5.92-2.56-14.73-.69-18.84,4.15-1.82,2.15,1.65,4.86,2.48,6.19,4.72,7.58,13.94,8.88,21.81,3.71Z"/>
    <path class="st1" d="M227.81,95.84c5.74-2.26,8.29-9.82,7.25-15.81-.06-.32-.12-.63-.21-.94-.17-.62-.38-1.23-.65-1.83-.67-1.49-1.63-2.9-2.82-4.18-.71-.77-1.5-1.5-2.35-2.17-1.42-1.13-3.01-2.11-4.69-2.92l-4.65,6.72c-.77,2.32-1.08,4.55-1.05,6.65.03,2.44.53,4.7,1.28,6.66.11.28.22.56.34.82.24.54.49,1.05.76,1.54.13.24.27.48.41.71.56.92,1.17,1.73,1.79,2.41,1.71,1.87,3.5,2.77,4.59,2.34Z"/>
    <path class="st1" d="M192.2,372.53c-1.63-1.34-3.56-1.25-6.2-.58-9.37,2.37-15.03,10.41-12.59,20.1l9.1-.12c7.07-.1,10.8-6.49,11.81-12.74.47-2.91.08-4.83-2.12-6.65Z"/>
    <path class="st1" d="M119.6,334.42l-2.6,9.36c5.62,1.31,11.26,2.58,16.46-.82,4.29-2.81,8.5-9.66,7.11-14.38-6.63-5.37-18.75-2.14-20.97,5.84Z"/>
    <path class="st1" d="M44.28,332.59c-4.51,1.8-6.4,7.24-8.08,11.33,4.44,4.27,10.41,5.89,16.98,3.76,3.46-1.12,8.44-6.68,9.07-10.65.79-5.03-13.19-6.35-17.97-4.44Z"/>
    <path class="st1" d="M292.68,323.37c-.94,5.43,5.55,12.14,10.27,13.41,5.68,1.53,9.91-.84,15.23-3.25-1.65-3.57-2.27-6.19-4.8-9.14-4.5-5.26-16.35-6.98-20.7-1.02Z"/>
    <path class="st1" d="M369.02,81.59c-.09,2.94.61,5.9,2.19,8.51.63-.05,1.25-.13,1.88-.23.63-.1,1.25-.23,1.88-.39,2.48-.62,4.89-1.69,6.94-3.27,1.03-.79,1.96-1.72,2.78-2.79.19-.25.37-.5.53-.76.32-.51.59-1.03.8-1.56,1.07-2.65.85-5.5.32-8.21-.16-.81-.35-1.62-.54-2.4l-1.13-4.64c-3.87.9-8.67,2.03-11.58,5.34-1.4,1.6-2.47,3.46-3.15,5.45-.14.4-.26.8-.37,1.21-.21.81-.37,1.64-.46,2.48-.04.42-.07.84-.09,1.26Z"/>
    <path class="st1" d="M263.81,410.61c-3.07-.76-5.73-.69-8.69-2.76-3.86,5.34-3.21,12.04.41,16.99,3.16,4.32,8.82,6.62,15.11,5.96,1.93-9.14-.27-18.55-6.83-20.18Z"/>
    <path class="st1" d="M49.72,127.96c3.31-.05,5.74-1.4,9.17.52,2.15-6.68-.03-11.7-4.17-15.92-3.22-3.28-11.99-5.31-14.87-1.66-3.41,7.55,2.54,17.17,9.87,17.06Z"/>
    <path class="st1" d="M265.9,174.32c1.85-.68,3.35-1.6,4.95-2.74,4.86-3.46,7.14-9.89,4.02-15.32l-4.22-7.32c-3.46,1.75-7.67,3.45-9.88,6.94-5.07,8.03.28,21.69,5.13,18.44Z"/>
    <path class="st1" d="M355.63,209.72c1.8,4.52,10.51,5.23,14.56,3.39,3.53-1.61,9.31-6.93,8.39-11.74-2.1-4.2-10.46-4.68-14.6-3.01-3.6,1.45-10.26,6.57-8.35,11.37Z"/>
    <path class="st1" d="M407.03,247.51c.25-1.22-1.27-1.74-1.8-2.4-5.83-7.16-14.45-7.48-21.67-2.31-1.21.87-4.28,3.61-2.12,4.65,2.61,1.26,2.66,2.32,4.4,4.45,7.44,9.1,20.65-1.79,21.19-4.39Z"/>
    <path class="st1" d="M297.58,45.6c.09,1.98.67,3.97,1.66,5.75.2.36.41.7.65,1.04s.48.67.74.98c.21.25.34.68.48,1.17.07.25.14.5.22.76.16.51.37,1.01.69,1.37.24.27.56.46.97.51s.93-.03,1.58-.3c1.97-.82,4.09-2.33,5.85-4.15.5-.52.98-1.07,1.41-1.63,1.52-1.97,2.53-4.15,2.52-6.18h0c0-2.62-.48-5.03-1.34-7.19-.22-.54-.46-1.06-.72-1.57-.53-1.01-1.14-1.96-1.84-2.85-.35-.44-.72-.86-1.11-1.27l-7.02,4.33c-3.48,2.15-4.91,5.66-4.75,9.22Z"/>
    <path class="st1" d="M120.92,142.58c-3.61-.63-6.64-.36-9.51.1,1.01,6.56,1.65,11.77,5.86,14.91,3.43,2.56,10.13,5.69,13.93,2.82,3.22-7.29-2.63-16.51-10.28-17.84Z"/>
    <path class="st1" d="M29.52,269.5l5.12-3.43c1.71-1.15,4.69-3.78,4.15-5.6-3.84-3.97-10-7.36-15.54-5.96-4.82,1.22-7.72,5.74-10.39,9.78,3.98,4.89,10.55,7.54,16.65,5.21Z"/>
    <path class="st1" d="M270.91,139.08c5.05-3.41,6.76-8.46,7.1-13.42.33-4.79-2.83-8.45-6.44-13.08-2.52,1.57-4.79,4.33-6.64,7.61-3.83,6.78-.69,15.01,5.98,18.9Z"/>
    <path class="st1" d="M144.68,126.87c3.97-1.37,4.4-4.63,3.73-8.55-.96-5.57-3.66-9.9-9.07-10.65l-8.29-1.15c-.14,3.51-.92,7.59.44,11.26,2.02,5.42,7.92,8.38,13.18,9.09Z"/>
    <path class="st1" d="M263.94,385.32c-1.25-.41-2.34-.16-3.02.22-.56.31-1.19,1.42-.96,2.6-2.91,4.6-2.96,9.38.46,14.09.9,2.52,7.56,6.68,10.78,5.08,6.18-7.98,1.32-19.17-7.26-22Z"/>
    <path class="st1" d="M94.74,310.6c.9-2.43-3.12-4.19-4.14-3.87-1.31-2.71-3.15-3.93-6.07-4.15-5.9-.46-11.16,2.69-14.41,8.04,2.99,3.14,6.77,7.33,11.98,7.32,4.19-.01,11.02-2.96,12.64-7.34Z"/>
    <path class="st1" d="M417.7,296.84c-3.92-1.4-6.5-.21-10.1,1.71-1.59.85-3.76.8-3.71,3.15.03,1.34.54,2.77,1.43,4.02,4.66,6.54,11.85,8.63,18.88,4.51,1.24-.72,2.8-.94,2.86-2.58.02-.49-4.38-9.04-9.37-10.82Z"/>
    <path class="st1" d="M94.66,197.36c-1.37,3.66,2.36,9.48,5.39,11.54,3.51,2.38,11.44,4.33,13.92-.09,2.28-4.07-2.63-10.01-5.6-11.9-3.47-2.21-9.93-2.27-13.71.46Z"/>
    <path class="st1" d="M366.68,278.67l-.92-1.17c-3.38-4.27-6.61-7.72-11.33-7.66-4.73.06-10.09,1.28-11.78,6.09,2.71.91,3.8,3.8,5.16,5.36,7.18,8.21,18.92-2.56,18.87-2.62Z"/>
    <path class="st1" d="M206.47,153.38c-1.59-6.87-11.57-10.88-12.26-9.5-2.14,4.31-3.29,9.58-1.07,13.34,1.68,2.84,5.21,8.12,9.84,6.75,3.29-.98,4.17-7.63,3.49-10.58Z"/>
    <path class="st1" d="M322.99,293.87c4.42,3.21,10.45,4.3,15.51,1.18,2.85-1.76,5.38-5.88,5.41-8.99-.71-2.08-5.36-4.12-7.85-3.93-6.6.51-12,5.54-13.06,11.74Z"/>
    <path class="st1" d="M405.12,127.1c3.05,4.04,9.29,3,12.55.93,3.92-2.49,7.71-9.09,3.99-12.85-2.95-2.98-9.69-.46-12.13,1.67-2.13,1.87-5.41,6.73-4.41,10.24Z"/>
    <path class="st1" d="M315.88,200.92c2.4-3.97,2.85-7.38,2.69-10.58-5.34-.96-10.52-.64-13.93,2.56-2.2,2.06-6.46,6.84-3.77,10.47,3.22,4.34,12.35,1.94,15-2.44Z"/>
    <path class="st1" d="M94.2,233.39c-5.06-.04-8.48,3.28-11.31,6.6,2.37,4.71,6.74,7.29,11.49,6.85,3.19-.29,10.37-2.33,9.79-6.51-.55-4.02-6.95-6.91-9.97-6.94Z"/>
    <path class="st1" d="M345.75,366.87c-5.34-3.3-11.62-3.56-13.66-.05-.38.66.64,1.81.96,2.38-.16,5.27,3.95,10.25,10.37,10.07,3.07-.09,5.01-.5,7.75-1.35-.6-4.24-2.09-9-5.42-11.05Z"/>
    <path class="st1" d="M426.12,191.56c-4.67.94-8.5,2.54-10.34,7.94,2.81.14,3.88,2.81,6.15,4.27,5.8,3.74,13.91-.9,15.82-6.72-1.73-3.58-8.03-6.22-11.63-5.49Z"/>
    <path class="st1" d="M61.96,320.25l-4.73,6.33c3.14,3.34,7.26,5.08,12.01,4.34,3.68-.57,8.69-3.25,9.81-8.18.38-1.67-2.7-2.17-3.54-2.41-3.16-3.31-10.26-4.48-13.54-.08Z"/>
    <path class="st1" d="M373.7,323.43c-.25-4.74-5.89-7.52-9.07-7.41-4.8.16-8.43,1.41-11.53,5.63,2.46,3.63,5.25,7.28,10.46,8.06,3.44.52,10.34-2.27,10.14-6.28Z"/>
    <path class="st1" d="M377.93,191.77c2.43-2.13,6.42-7.83,4.33-11.15-3.08-2.9-9.9-1.69-12.5.56-2.32,2.01-6.67,7.15-4.37,10.85,2.16,3.46,9.7,2.22,12.54-.26Z"/>
    <path class="st1" d="M374.29,334.99c-1.62.44-3.61.86-4.95.76-2.1,1.35-.5,4.76.52,6.86,3.16,6.49,8.28,8.82,15.8,7.25.84-3.12.32-7.35-2.09-10.7-1.62-2.26-5.71-5.14-9.29-4.17Z"/>
    <path class="st1" d="M388.69,145.3c2.7-3.06,3.38-10.21,1.08-12.55-4-1.54-9.27,2.07-11.26,4.6-2.31,2.92-4.37,9.71-.91,11.92,3,1.76,8.65-1.19,11.1-3.97Z"/>
    <path class="st1" d="M418.43,222.45c3.15-.17,9-3.24,9.13-7.27-.85-3.69-6.74-5.45-10.07-5.22-3.05.21-9.24,1.89-9.35,6.27-.11,4.49,6.57,6.42,10.29,6.22Z"/>
    <path class="st1" d="M143.25,421.4c-.43,2.17.75,4.72,1.8,6.73,2.39-.84,5.6-.9,7.91-2.62,4.88-3.63,4.94-10.55,3.53-15.53-7.2.43-11.95,4.96-13.24,11.41Z"/>
    <path class="st1" d="M355.65,239.62c-.34,3.49,5.92,6.36,8.88,6.37,3.15,0,8.27-2.57,9-6.72-.5-3.1-6.14-5.55-8.99-5.2-2.86.35-8.5,1.52-8.9,5.54Z"/>
    <path class="st1" d="M358.34,384.77c-2.02-1.6-7.33-3.43-9.48-.96-2.76,3.16-.13,8.41,2.3,10.61,1.95,1.77,8.27,4.16,9.48,1.65,2.15-4.46.13-9.37-2.3-11.3Z"/>
    <path class="st1" d="M65.2,358.85c-2.52,1.46-5.87,5.78-3.77,8.84,1.96,2.85,7.81,1.38,10.15-.07,2.04-1.27,5.13-5.16,3.63-8.48-1.61-3.57-7.5-1.74-10.01-.28Z"/>
    <path class="st1" d="M37.58,251.04c-.17,2.75,4.54,5.33,7.05,5.3,2.86-.04,8.6-1.3,8.12-5.63-.36-3.28-5.67-4.83-8.05-4.39-2.06.38-6.07,1.72-7.12,4.72Z"/>
    <path class="st1" d="M153.13,119.38c2.91,16,24.54,28.84,31.28,23.85,4.88-3.62,6.74-10.63,8.43-15.94,4.8-15.08-5.4-29.36-20.14-33.88-3.79-1.16-7.09-2.11-10.3-4.43-.46-.33-.92-.69-1.37-1.08,0,.5-.03.97-.07,1.42-.3,3.14-1.53,5.2-3.05,7.73-4.01,6.71-6.27,14.09-4.78,22.34Z"/>
    <path class="st1" d="M106.92,176.14c-.45,13.21,7.18,24.98,19.17,29.86,8.53,3.47,17.03,4.99,26.01,2.14.65-.21,2.25.38,2.8-.73.29-.59.24-1.52.27-2.53.13-4.57-.29-8.76-1.04-13.24-2.56-15.3-15.4-26.56-31.1-25.82l-18.44.87c1.73,3.69,2.45,6.06,2.34,9.46Z"/>
    <path class="st1" d="M254.64,248.35c5.06,1.28,9.8,1.37,14.94.93,15.29-1.29,26.41-13.68,26.58-29.1.05-4.95.23-9.01,1.13-14.43-4.14,1.98-6.98,1.13-10.82.89-13.92-.85-25.29,5.93-31,18.93-4.19,9.55-5.31,21.64-.82,22.78Z"/>
    <path class="st1" d="M178.03,208.11l-12.13-.11c2.18,6.55-.21,12.72,3.11,20.37,8.37,19.27,35.44,19.5,35.96,14.05.48-5.03.14-9.36-.78-14.49-2.19-12.22-13.66-19.72-26.16-19.83Z"/>
    <path class="st1" d="M306.26,307.36l7.11-8.8c.41-.51,1.43-.58,1.39-.93-.07-.73-1.25-.91-1.9-1.36l-11.67-8.09c-10.41-4.57-21.15-2.2-29.6,4.55-4.79,3.83-8.6,10.16-8.62,10.87-.02.65,1.41,1.09,1.82,1.66,2.48,3.56,6.66,5.97,10.69,8.26,10.41,5.92,23.18,3.27,30.79-6.16Z"/>
    <path class="st1" d="M188.95,162.18l-12.82-6.41c-.77,3.56-1.71,5.75-3.15,8.41-4.72,8.7-4.12,19.29,1.6,27.3,4.59,6.43,10.71,11.12,18.48,12.71,1.6.33,1.66-1.16,2.09-1.62,2.92-3.14,3.83-6.69,5.18-10.11,4.44-11.29-.07-24.63-11.38-30.28Z"/>
    <path class="st1" d="M175.53,344.47c6.77-3.23,14.94-11.39,15.08-20.19-2.79-4.55-8.82-6.07-13.23-7.46-9.32-2.95-19.84-.3-25.91,7.84l-7.67,13.48c-1.17,2.05,2.65,2.93,3.7,3.6,8.29,5.29,18.15,7.44,28.04,2.73Z"/>
    <path class="st1" d="M261.31,189.85l-6.69-15.83c-2.09,2.44-3.97,3.6-6.45,4.32-11.15,3.25-17.41,13.35-17.39,24.81.03,12.44,6.81,21.07,7.62,20.84.48-.14,1.14-.63,1.49-1.51,4.44-.36,8.43-3.06,12.33-5.78,8.32-5.8,13.17-17.22,9.1-26.85Z"/>
    <path class="st1" d="M249.51,161.37c3.77-1.69,5.51-5.77,7.71-8.82,7.64-10.59,5.47-24.8-5.02-32.68l-11.71-8.8c-1.6.57-1.58,2.69-2.68,4.05-6.26,5.89-11.44,14.6-10.08,22.96,2.21,13.49,15.07,26.29,21.77,23.29Z"/>
    <path class="st1" d="M335.23,175.87c.16.8,2.02.27,2.49.31,3.21.31,7.68-.22,11.31-.96,9.47-1.92,16.53-9.27,19.31-18.93l.86-16.15c-3.64.97-5.89.97-9.11,1.19-17.46,1.2-28.12,18.11-24.88,34.53Z"/>
    <path class="st1" d="M271.43,200.3c.33.26,1.3-.41,1.72-.96,4.05.41,8.91-1.03,13.11-2.32,10.61-3.27,17.22-14.19,15.55-25.65l-1.82-12.53c-3.13,1.89-5.8,1.52-8.97,2.33-18.04,4.61-26.15,21.51-19.81,36.94.21.51-.09,1.94.23,2.2Z"/>
    <path class="st1" d="M150.41,135.72c-3.41-.92-6.17-1.96-9.48-3.85.12,7.11-5.85,12.93-3.75,22.35,2.57,11.53,12.79,19.58,24.25,21.65,1.06.42,1.97-.08,1.62-1.39,2.75-3.55,3.81-7.85,4.61-12.19,2.26-12.19-5.29-23.34-17.25-26.57Z"/>
    <path class="st1" d="M334.98,210.42c2.96.39,5.76-.28,8.88-1.12,9.9-2.68,17.22-11.67,16.05-22.19l-1.07-9.66c-5.43,1.49-10.26,1.33-14.85,3.81-13.47,7.31-16,28.24-9.01,29.16Z"/>
    <path class="st1" d="M154,312.45c4.25-6.01-11.12-16.71-23.95-14.15-6.28,1.26-10.03,5.99-15.67,10.42l11.01,10.74c7.13,4.6,16.18,3.71,22.38-1.02,2.51-1.91,4.43-3.44,6.23-5.99Z"/>
    <path class="st1" d="M228.33,155.8l-9.58-8.28c-.82,3.64-2.98,5.05-4.86,7.66-8.04,11.15-2.79,26.88,9.28,32.81,1.24.61,1.76-.73,2.16-.98,2.76-1.71,4.15-4.77,5.88-7.35,5.1-7.6,4.18-17.77-2.88-23.87Z"/>
    <path class="st1" d="M194.8,350.23c.01-1.55.11-3.33-.83-4.58-1.12-1.49-7.01-2.97-10.57-1.07-2.83,1.5-6.84,2.21-9.06,4.86-4.34,5.2-5.48,11.89-5.28,18.77l10.04.21c7.99.17,14.6-6.55,14.98-13.98.02-.38-.12-.87.02-1.23.38-.24.69-.72.69-1.18v-1.8Z"/>
    <path class="st1" d="M131.08,253.85c-.46-.38-.92-.75-1.38-1.12-.33-.26-.73-.43-1.02-.73-.1-.1-.16-.22-.23-.34-.01,0-.02.02-.03.03-1.9-2.24-3.65-2.27-5.03-3.15-7.44-4.69-17.14-2.05-23.09,4.9l-6.34,7.39,10.47,6.89c12.07,7.94,29.68-7.36,28.43-11.8-.18-.64-.94-1.33-1.76-1.62.07-.16.05-.32,0-.45Z"/>
  </g>
  <path class="st0" d="M426.38,693.82c-3.63.77-5.53.73-8.81-1.35-5.89-3.74-22.24,1.24-28.89-3.08l-10.42-10.41c13.88-6.94,10.41-23.44,20.82-15.47.16-2.9-1.85-4.31-3.86-4.91-5.65-1.69-6.68,8.65-13.56,14.31-8.49,6.99-10.22-3.75-23.77-7.48-5.78-1.59-11.13-9.33-7.52-12.53,1.65-1.46,3.61-1.24,5.87.76.49-2.78-1.34-3.69-2.96-4-1.54-.3-3.21.45-5.22,1.73l-2.32-12.5c6.54,2,12.61,1.43,17.5-2.55,4.9-4,10.37-4.62,17.43-3.25-5.99-5.94-13.28-2.85-19.24.28-9.59,5.05-18.83-.55-26.3-6.3-11.78-9.07-23.59-17.94-30.27-32.24,5.69-1.11,7.83,2.8,12.71,3.65-3.27-5.82-9.3-6.67-15.68-6.7,1.87-2.68,5.12-3.09,7.72-3.77,2.64-.69,3.76-2.27,5.73-3.37,3.46-1.93,7.49-2.76,10.93-6.17,11.71,10.2,14.61,26.7,24.53,37.87,2.71,3.05,5.85,6.7,10.64,5.56-6.62-2.49-11.44-7.34-14.49-13.74l-10.64-22.32c7.05.91,12.8,1.97,18.87,4.48-.52,7.25-5.88,15.43-.28,18.43,2.32,1.25,5.96,1.74,8.16-.62-3.28-.56-6.02-.98-7.05-2.74-2.02-3.46.78-10.32,1.87-11,.64-.39,1.82.81,3.4.9-1.63-2.83-2.02-4.56-1.9-7.41l.47-10.98c8.48,4.65,13.61,11.82,20.32,18.09,6.55,6.12,14.8,10.37,23,13.74l9.69,3.99c-4.8-6.2-11.09-6.84-16.37-11.33,3.96-.46,5.49-3.75,7.84-4.8,10.49-4.67,21.33-1.2,29.35,6.23-.74-5.16-4.81-6.71-7.93-10.02.75-1.16,2.78-1.64,2.54-4.62-3.87,2.82-6.3,2.63-10.07,1.84-12.82-2.69-23.06,11.97-33.56.41-7.48-8.23-15.64-15.09-24.87-22.44,5.86-1.34,11.5.17,15.65,3.74,2.28,1.96,3.22,4.99,6.8,5.61-9.29-15.94-18.17-11.03-26.2-12.07-6.19-.8-11.8-9.73-35.19,2.79-10.83-8.72-22.44-14.7-35.21-19.45-4.03-1.5-7.49-4.64-11.87-5.19-2.51-.31-3.41-1.14-5.47-2.67-5.21-3.87-14.4-5.63-17.86-11.79-3.99-7.11-2.27-16.79-3.56-24.69-1.35-8.28-1.93-15.79-1.78-24.13l.7-39.19,4.12-45.72,1.78-42.09c.36-8.54-1.57-16.28-.95-25.07.84-11.82,2.42-24.33,10.81-33.4,8.96-9.68,19.97-17.02,31.41-23.61l33.94-23.07,7.31-6.62c2.78-2.52,4.59-3.56,8.28-4.89,5.36-1.94,10.08-4.8,16.9-4.04-1.74-3.49-4.41-1.9-7.55-2.4l9.36-4.24-.78-1.1-8.58,1.23,9.22-6.91-.74-1.07c-2.82.17-4.69,3.54-8.79,2.29,2.14-1.68,5.04-2.15,4.93-5.66l-12.41,6.34c-.85.43-1.71-.67-1.42-1.23l1.37-2.65c.5-.96.38-1.75.34-2.35-.05-.86-1.42-1.48-1.73-.96l-1.1,1.87c-3.61,3.21-5.02,7.03-7.42,10.78-1.92,3-7.26,3.18-10.23,4.73l-38.1,19.85c-3.12,1.62-5.64.76-8.24,4.02-1.91,2.4-7.89,4.45-10.86,4.45-2.51,0-4.37-.87-6.24,1.26-5.87,6.69-12.65.13-20.94-1.52.83-6.75,4.75-8.36,5.21-10.97.26-1.5-1.45-2.97-1.85-4.89-1.16-5.73-2.09-12.12-7.23-15.72-5.54-3.89-12.71-1.54-16.84,3.39-3.16,3.76-3.17,8.87-5.01,12.84-3.47,7.5,3.57,8.5,3.57,19.55-3.71-.83-7.87,1.66-10.34,1.7-2.95-1.35-4.76-3.22-8.4-1.56-4.28,1.96-7.4-.22-10.64-2.32l-11.53-7.45-6.13-.79c-11.77-6.87-23.02-14.65-34.23-22.45-1.08.09-2.6,2.49-3.42,2.28-.87-.23-3.08-.9-3.43-2.21l-1.75-6.6c-2.68-3.03-4.04-5.56-4.37-10.44-4.2,2.15-2.96,5.96-1.84,9.93l-12.72-8.83-1.27,1.16,5.96,6.78-.95.98c-2.89-1.55-5.03-4.49-8.7-4.73-.05.1-.5.81-.66.95l9.64,8.54-10.01-2.95c-.06.03-.16.96-.05,1.42l9.74,5.75c-3.28,1.99-8.82,1.26-8.21,3.2.65,2.03,6.11-1.64,14.71,2.68,2.9,1.46,5.03,1.91,7.08,5.15.95.73,2.93,1.51,3.3,2.6.42,1.24.7,3.23.06,4.58.37.25.74.48,1.11.73.5.34.89.75,1.31,1.19.13.13.24.27.35.42,13.21,7.75,26.46,15.59,39.37,24.62l20.49,12.85c4.87,3.05,8.63,9.73,10.12,15.49,2.19,8.51,2.22,17.65,1.49,26.39-.98,11.66-.35,22.11,0,33.8l1.99,67.4c.67,22.86.11,44.71-2.19,67.45l-2.8,27.72c-2.23,8.1-12,10.38-19.3,10.81l-18.9,1.13c-8.42.5-10.48,10.58-24.71,11.44l-19.35,1.17c-8.32.5-14.88,5.58-17.26,13.67l-3.77,8.66c3.77-1.16,5.32-4.91,6.75-8.32,3.79-8.99,14.6-11.11,25.34-11.28-4.03,5.52-13.41,6.65-12.56,11.45.4,2.27,1.59,4.71,4.67,4.88-1.13-2.04-2.02-3.06-2.17-4.72-.44-4.6,7.88-4.69,14.3-11.29,2.91-1.17,7.01-.78,11.54-.53l-11.76,23.42c-2.37,4.71-6.57,6.79-10.8,9.51l-11.48,7.38-13.22,7.72c-10.79-1.56-17.1-12.57-30.59-11.27-1.03-.71-1.58.92-.6,2.88,5.33-.54,10.5.3,15.14,3.97l11.08,8.75c-.85,3.5-4.84,4.95-7.36,6.28.96,3.79-1.13,5.95-3.13,8.88-10.16,14.84-19.53-.46-29.92,8.12-5.45,4.5-12.08,2.79-16.84-1.96-8.86-8.84-9.6-20.99-17.92-19.02-3.07.73-6.53,4.63-5.14,8.23,2.42-2.68,3.76-5.01,6.09-5.16,7.36-.47,6.57,14.12,19.13,22.86,3.03,2.11,6.29,3.5,10.38,3.51-.73,5.97-3.97,9.75-7.8,13.55l-19.01,18.87c-3.59,3.56-5.22,8.02-10.84,9.13,2.38,1.83,3.42,1.03,5.59.59-1.25,6.44,2.74,9.76,5.67,14.41l3.11,15.1.94.53-.82-7.79c.57-6.11-1.81-9.95-4.48-14.65-2.87-5.05.9-11.73,4.74-15.23l17.84-16.27c2.1,10.73-5.95,22.27,1.58,28.3-.29-5.98-1.14-10.83.49-16.25l2.28-17.51c3.77-4.08,5.82-8.71,7.03-13.97,4.24-9.12,9.44-2.36,20.59-1.6-.58,10.61,1.32,20.85,8.31,28.69,3.15,3.53,7.91,6.43,8.95,11.65.46,2.3-4.57,4.48-6.67,4.51-6.86.1-9.18-10.76-16.64-8.85,5.9,2.73,8.4,6.02,11.76,10.39,1.48,1.92,4.03,3.2,2.22,6.7,2.13-.73,1.99-3.09,3.01-3.89l8.02-4.47c1.43,4.31-.11,7.33-.92,11.74,6.88-4.65.33-11.98,6.38-17.08l8.65-7.3c3.3-2.78,6.28-5.52,11.36-5.79-3.78,10.59,3.21,15.43,2.89,21.28,1.23-.3,2.63-.16,3.18-1.65l2.97-8.06c-2.82-.07-2.78,2.1-3.93,4.63-5.62-6.51-4.15-15.47,2.83-20.82.88,4.49,1.32,8.72.02,12.9l-.61,1.94c-.15.47,1.89,1.52,2.15.79,4.26-11.99-1.1-30.65,10.29-30.96,2.76-.07,6.92,1.63,9.06,3.25l12.69,9.6c-5.06,1.14-7.86,4.52-8.01,8.46h1c.77-2,3.05-5.24,6.1-4.56,2.4.53,5.99,5.32,5.6,7.86-.6,3.83-5.66,5.61-8.79,6.88-3.82,1.28-6.88,2.79-6.62,7.48,0,1.72.98,6.35,3.9,6.54-1.41-3.65-2.35-5.26-1.51-7.43,2.04-5.24,9-2.61,16.41-10.03,3.65,1.15,8.09,4.35,13.13,2.51-4.58,13.21-11.78,25.73-24.72,29.66-5.77,1.75-10.61,4.8-14.73,8.47l1.23,1.27c5.7-4.38,12.66-5.63,20.31-7.89.33,7.85,2.47,13.66,4.06,20.6l-5.59,3.83,6.17-.92c2.1,5.59.12,10.81-2.03,15.51l-.5.72c-.75.08-1.81-.17-2.27-1.18l-6.37-13.85,4.44-.7-6.63-1.71c-2.39-.62-4.53-1.7-6.75-.44-1.51.86-3.62,2.97-3.34,5.28,2.95-2.11,4.82-3.87,6.88-3.51,2.54.44,2.93,2.78,3.96,4.78l8.14,15.94c1.66,3.24,5.97,4.53,9.17,7.2-12.66,14.25-6.51,31.42-9.91,35.22-1.14,1.28-3.23,2.34-5.52,1.92l-7.66-1.41c-2.26-.42-4.53-.11-5.94,1.38-1.29,1.36-2.91,3.25-1.88,5.6,6.25-11.54,13.02-.13,22.69-4.26,1.01,2.19.79,4.27,2.68,6.08-.22-8.49-.6-15.56.89-24.13,4.1,3.18,7.52,6.4,12.68,6.06l-9.68-7.31c-4.81-7.09,5.92-17.18,14.63-22.71l4.51,4.83c.51-.21.55-.84.7-1.36-.83-1.35-2.04-3.7-2.62-5.57,3.3-2.67,5.22-5.13,8.52-6.81.04,2.23-.15,3.68,1.21,4.64.02-2.47-1.02-4.93.27-6.78l4.81-6.88c5.26,7.94,12.46,13.98,21.63,15.7,4.41.83,9.34,1.34,11.86,6.06-.46,1.2-2.58,1.33-3.74,2.94,1.5-.03,3.95-.39,4.63.59l-.82,6.83c5-2.59.58-9.16,7.33-11.56,1.68,12.53-1.06,28.98-14.08,29.32,8.12,3.33,14-5.71,15.61-15.72l18.77.7c-4-4.44-13.89,1.06-17.26-3.71-2.22-3.13,2.65-14.65-5.41-25.69,5.84-2.91,10.79-7.82,10.75-14.19-3.04,3.89-5.96,10.94-11.46,10.81-10.41-4.81-15.67-17.18-16.28-28.43l1.26-20.53c6.4,1.27,11.07,4.33,17.98,4.53-4.76-5.3-11.3-5.89-17.39-8.66l1.04-15.82c4.37.97,8.36,2.82,11.12,7.4.12-3.52,1.2-4.08,3.92-4.09,3.24-.01,3.12,1.7,3.95,4.53,1.4,4.79,5.32,9.17,9.61,8.64l1.15-.41c-4.75-2.77-9.54-6.43-9.51-12.79,2.27-1.52,4.52-2.27,8.03-3.29l7.68,21.83c1.24,3.54-5.6,27.3-19.13,28.68,5.25,1.71,10.81-1.31,14.44-5.88l7.38-17.53c4.11,8.62,9.69,14.43,15.53,20.83,3.49,3.82,2.91,11.6,1.08,15.96-.93,2.23-4.24,2.11-5.71,2.51v1.78s3.8-.11,3.8-.11c.16-.08.39-.71.74-.6.43.12.73.71.65.98l-4.88,16.25c-3.14,10.44.6,21.96,8.35,29.74-3.94-10.82-8.86-18.85-4.48-29.9,6.97,5.4,13.23,1.69,18.1,5.31-.07-6.86-12.27-.23-16.77-8.82.42-8.14,6.86-16.8,6.03-28.5l14.74,6.64c4.18,1.89,8.78,3.91,12.05,7.39.67,1.52-.88,4.7-1.65,5.95.25.54.91.55,1.47.49.69-1.13,2.21-2.84,3.81-3.82,5.45,4.13,7.48,9.59,10.98,14.76.52-5.13-2.9-8.43-5.54-11.97-7.8-10.46-18.75-17.18-30.53-22.44-3.63-1.62-6.27-4.27-9.58-7.45,9.27-2.01,17.55-2.14,27.31.94-4.75-8.19-20.22-1.25-30.53-5.62-7.07-6.26-12.43-19.76-15.77-30.69,3.15,1.58,5.08,1.51,8.4,1.11.81,5.93.1,12.03,5.01,16.85-1.37-5.81-3.84-10.83-2.51-17.01,7.1-1.34,12.09-5.58,15.74-11.47,3.33-.4,2.76-6.48,7.53-5.23,1.35.36,3.16.98,4.36,2.79,5.82,8.72,7.3,11.98,1.13,20.24.42-.33,1.36-.08,1.59.28l6.28-7.87c-1.32-4.2.06-7.14.35-10.87l8.9-1.49c2.22-.37,4.4,1.43,4.73,3.63.81,5.33,3.53,9.44,6.15,14.02,2.4,4.2-1.65,7.4-4.88,11.26,3.94-.42,6.13-3.94,8.79-7.09l9.65,11.65c-4.93,3.39-6.69,8.98-2.94,13.36,1.94,2.26,1.49,3.71,1.32,7.7,1.42-2.6,2.92-2.98,5.17-3.24-1.62-2.8-.22-4.26.69-7.11l2.16-6.77-2.26-3.2c7.2-6.4,8.78-15.39,6.73-25.57,7.19,2.68,13.76,6.97,17.49,12.9,1.24,14.11-7.36,21.84,4.59,29.45l5.73,3.65c-1.06-3.1-3.41-4.12-5.73-5.72-6.08-4.19-4.01-14.38-1.26-24.54l21.95,19.8c2.55,2.3,4.72,2.75,5.95,5.91l1.53.06c-.19-.83-.62-2.46-.16-3.19.68-1.06,3-1.17,4.01-2.1,3.3-3.03,5.44-6.94,9.61-9.19l4.16,3.78-1.95-5.22,8.83-2.78c4.43-1.39,8.81-4.65,9.35-9.39-4.7,5.6-9.89,7.68-16.09,8.99ZM347.53,571.79c7.55,1.91,10.28,9.92,8.1,16.49l-16.85-4.32c-4.35-1.12-7.52-3.57-8.75-7.61,4.96-3.95,11.38-6.09,17.5-4.55ZM112.69,223.84l.97-.92c.82.8-.27,1.74-.97.92ZM202.74,550.45c-.49,5.74-.07,12.09-2.15,17.34-6.27,8.61-17.16,12.59-27.62,13.67.04-5.12,1.47-10.23-3.76-12.99,1.51,4.74,3.18,8.6,1.68,13.66l-8.85,2.8c-2.5-5.31-1.06-12.32,3.95-15.64.37-.24,2,.15,2.35.24.45.11,1.19-.96.31-1.35-.4-.17-1.05-.57-1.55-1.38l12.04-12.95c8.14,1.15,15.34.65,23.6-3.4ZM194.24,581.18l8.48-4.6c-.12,4.38-1.46,5.58-3.51,6.12-1.63.43-5.31,1.38-4.98-1.52ZM198.52,587.18c-2.16,3.62-4.41,6.98-8.4,9.22-.55-3.17-.52-6.6,1.32-8.99,1.03-1.34,4.38-1.35,7.08-.23ZM173.66,599.27c.97-.77,3.42,2.45,2.38,3.74-1.08,1.35-3.21.86-3.55.26-.42-.75-.21-2.9,1.16-4ZM169.43,603.25c-7.11-1.91-12.27-4.9-18.39-9.35,5.83-4.92,11.63-3.49,14.91-5.85,1.13-.81,4.1-1.07,4.94-.19,2.96,3.12.96,9.19-1.46,15.38ZM173.85,587.07c1.46-.79,3.29-.81,5.07-.49-1.05,2.07-2.41,2.9-4.17,3.62-.93.38-2.05-2.5-.9-3.13ZM176.25,595.26c1-3.59,5.2-5.71,9.13-6.77l.35,10.32c.08,2.25-3.14,3.52-4.98,2.52-1.87-1.02-5.18-3.61-4.49-6.07ZM151.29,567.48c4.54-8.52,12.84-14.33,23.18-13.58-7.51,12.85-20.72,15.2-14.32,31.86l-11.38,6.47c-2.96-1.01-5.03-2.58-8.22-4.58l10.74-20.18ZM118.16,604.16l12.09-5.4c-2.57,13.32,4.72,19.76-9.49,26.18-1.96-7.02-2.95-13.45-2.6-20.78ZM126.7,650.73c-1.58,6.67-5.72,7.67-10.83,9.49-8.42,2.99-13.9,10.33-20.71,15.87-2.33-4.07-4.88-6.56-7.74-9.53-7.61-7.9-10.35-19.91-7.55-30.72,3.95-3.96,8.48-8.26,11.61-13.25,5.37-8.57,14.01-13.94,23.35-17.18l3.47,20.96-15.64,8.67c.55,2.53-1.12,4.81-.94,7.97,2.84-3.28,3.77-6.97,7.51-8.94,1.22-.65,3.13-.1,4.46.72.93.57,1.19,1.86.87,3.69,4.56-.72,7.55,3.74,14.4,2.74l-2.24,9.5ZM117.46,633.06c-.13.72-1.96,1.76-3.81-.04-1.61-1.57,2.6-4.38,4.2-3.14.2,1.16-.29,2.64-.39,3.18ZM119.53,636.69c-.84-2.93.66-5.93,1.18-8.88,4.26-1.65,7.68-3.64,11.41-7l6.29,10.82c-4.63,4.76-11.29,7.86-18.89,5.07ZM134.29,613.21c-.27-2.16,2.39-3.74,2.78-6.73l-3.31,1.83,2.84-14c3.77-.39,4.04,3.44,5.4,4.5,2.62,2.05,5.31,3.29,8.21,5.14l9.92,6.35c-4.38,7.68-9.5,14.13-18.21,19.78-4.28-4.42-6.85-10.7-7.63-16.86ZM168.11,664.65l-5.19-6.59c2.14-.93,4.1.16,5.28,1.38,1.02,1.05,1.13,3.59-.09,5.21ZM160.32,646.81l-18.12-11.09c9.92-6.37,17.23-13.54,23.65-23.32,7.39,1.85,14.57,1.64,21.28-1.09,1.29.87,1.43,3.62.79,5.12-.65,1.52-2.92,2.93-5.15,2.69l-11.7-1.29c-3.34-.37-4.36,5.52-2.36,7.64l.9-4.26c.88-4.17,9.98,2.81,19.13-1.06l-.09,8.82c-2.16,1.01-4.2,1.03-6.16,1.33-.24.52-.11,1.02-.07,1.21l5.55-.03c.06,4.1-2.16,7.69-4.54,11.11l-6.68,9.6c-6-.43-11.42-2.31-16.43-5.37ZM180.91,669.61c-3.35,1.27-6.9.56-9.64-1.64.45-2.58,1.43-4.66,3.01-6.69l12.3,1.39c-.69,4.09-3.21,5.99-5.67,6.93ZM177.95,752.18c-1.61,1.1-4.88-.28-6.38-.65-2.84-.69-4.63-3.32-4.05-5.87.09.03.2,0,.25-.06,3.2-3.8,4.53-9.2,3.45-14.57l-3.39-16.83c-3.03-15.06,7.95-12.63,15.18-30.14l9.33-22.6c2.16-1.31,4.07-2.32,7.04-2.83l.43,27.22c-1.2,1.12-2.24,1.72-3.04,3.06,1.16.09,3.16.63,3.37,1.25l.5,12.57c-11.37,10.03-26.91,10.98-21.88,27.68.35-6.7,1.63-12.25,7.22-15.37l14.65-8.17c.32,21.14-5.27,33.41-22.68,45.3ZM201.56,633.6c-9.88,10.31-7.68,21.32-22.86,18.27,5.5-6.48,11.63-12.02,13.15-21.05,6.53-2.6,9.4-7.86,12.69-14.34,1.05,6.51-1.64,11.56-2.98,17.12ZM204.99,609.16c-2.75,6.67-5,13.54-11.91,18.3l-1.73-17.55c3.33-4.23,9.49-7.52,12.77-13.54,1.77,4.61.26,8.26.87,12.79ZM316.49,569.3c-5.49,4.06-11.72,6.54-18.53,8.33-3.54-6.37-5.18-12.51-7.07-19.76,9.32,1.98,16.93,5.46,25.6,11.43ZM287.17,556.89l8.52,21.54c-10.08,3.63-23.16.96-29.89-8.12.43-5.96,2.44-12.99-.04-19.51l21.4,6.09ZM289.69,592.92c1.27-.18,2.24-.53,3.33-.23.88.24,2.52,2.1,1.44,2.88l-6.1,4.37c-8.18-2.93-17.23,3.09-21.29-3.6l-5.59-9.2c9.47,3.67,18.18,7.21,28.21,5.79ZM266.1,610.97l6.15,13.9c2.4,5.43,3,11.33,1.62,17.51l-6.15-8.97c-3.8-5.54-7.02-11.26-7.7-18.08l6.07-4.36ZM259.59,612.17l-.25-10.91c2.93.13,3.84,2.16,4.3,4.73.38,2.13-.09,4.6-4.05,6.18ZM272.23,603.8c3.58-2.06,7.26-2.55,11.37-1.77-3.51,2.27-7.01,3.52-11.37,1.77ZM259.45,566.47c-8.55-8.17-13.65-17.49-16.8-28.61,14.9,6.16,18.64,12.94,16.8,28.61ZM237.92,562.75c6.67,7.95,11.17,15.63,20.11,21.36-2.82,4.04-6.5,2.4-9.82,1.03-3.69-1.53-7.58-1.05-10.9-3.34l.61-19.05ZM214.45,641.96c2.35,4.18,4.53,9.03,4.06,14.01-.24,2.56-3.88,4.7-7.17,5.42-.12-6.36.69-12.75,3.11-19.43ZM219.26,660.32c1.47,5.32,2.47,10.12-1.15,15.46-3.53-3.16-5.18-6.75-7.85-10.98l9-4.48ZM209.65,674.32c2.37.42,3.91,2.91,4.24,4.5.47,2.21-2.26,4.22-4.52,4.03l.28-8.52ZM208.34,715.83l-.22-16.56c0-.45-1.14-1.31-1.02-1.63.18-.48,1.04-1.38,1.54-1.51.5-.13,1.51.89,1.89,2.19,1.02-.82.96-2.44.43-4.21-1.55-5.23,1.23-11.45,6.87-11.74,2.22-.11,2.98,3.97,3.01,5.61l.23,12.01c.04,1.98-.24,5.42-.85,7.26-1.66,5.02-.59,9.05-.93,13.89-.31,4.43-7.18,7.6-11.79,8.6-3.01-4.98.9-9.92.85-13.91ZM225.87,731.45c2.19-.12,3.13.36,4.74,2.15l12.02,13.38c2.9,3.23,2.13,7.42-2.04,10.29-2.25-5.08-6.07-7.32-11.16-8.44-9.37-2.06-18.46-7.11-21.71-16.3,5.57-1.52,9.76-3.55,13.23-7.73l4.93,6.65ZM226.05,639.8l-6.91-11.66c1.2-2.61,2.3-5.53,4.71-7.09,2.68-1.73,6.52-.43,8.62,2.13l-6.43,16.62ZM234.15,662.64c-11.33-11.96-6.61-22.35,1.66-36.3,4.95,5.13,7.91,10.62,10.23,16.58l-11.9,19.72ZM237.48,664.49c1.83-7.3,5.92-12.32,10.5-18.11l6.75,16.67c-5.59,3.07-11.56,3.21-17.26,1.44ZM249.74,629.29c-.8-5.73-3.95-10.22-8.48-13.27-3.57-7.15-4.29-14.52-4.86-21.86,6.86.32,12.4.19,18.31,2.4-.61,6.13-.52,12.37-.09,18.11l-1.5,2.05c-.23.31,2.21.81,2.37,1.27,2.72,7.61,7.47,14.65,12.45,21.13l5.3,6.89-5.83,10.74c-.99,1.82-4.09,2.82-6.49,3.3-3.31-10.55-6.05-20.9-11.18-30.76ZM274.49,670.06c-3.46,2.29-8.36-2-10.76-4.96,1.69-1.72,3.79-2.46,6.37-2.51,2.41-.05,5.85,5.35,4.39,7.47ZM310.31,669.41c-1.4-5.56-3.21-10.14-7.62-12.93-6.5-4.12-8.57,3.71-11.61.3-.22-.25-.44-.34-.58-.39-.24-.46-1.09-.77-1.88-.39-.42.2-.96.91.18,1.19.7.14.9.41,1.06.53.42.32.94.7,1.21,1.1,1.19,1.76-5.86,10.08-13.05,11.24.28-6.19-2.17-12.06-8.53-13.46,1.7-3.45,3.1-5.33,5.2-7.6l2.91,4.84c.76-1.59.59-3.05,1.03-3.29.44-.24,1.55,1.56,3.24-.09-2.52-2.38-4.92-5.09-4.69-9.15l.56-9.9c8.66,4.11,16.27,8.77,22.35,15.62l8.38,12.62c2.07,3.12,3.7,6.21,1.83,9.75ZM309.92,654.13c-4.76-10.56-12.02-18.85-22.12-24.75-7.71-4.5-12.64-11.25-14.68-20.15,5.26-.25,9.32-2.47,14.13-5.71,1.54,2.51.74,4.79.88,7.97,2.95-2.28,2.73-5.7,1.75-9.24,2.19-2.18,4.1-3.42,7.34-4.63l11.68,16.59c4.21,5.98-8.85,27.1,8.23,31.05.32.07.51.45.54.65.05,1.97,2.74,1.22,1.57-.32-.8-.46-1.09-1-1.09-1.13-6.04-2.52-8.99-7.8-7.72-14.64l2.29-12.31c15.3,14.93,28.35,13.5,30.49,36.5.35,3.74,1.17,5.51-2.43,8.15-3.27,2.39-7.26,3.51-10.85-.12-6.53-6.61-15.93,1.16-20.02-7.91ZM348.43,710.29c-2.7-1.35-3.18-4.12-2.66-6.06.52-1.96,1.28-4.35,4.01-4.93.26,3.73.52,7.19-1.35,10.99ZM350.02,693.43l-11.85-13.44c-3.03-3.43-5.33-6.88-6-11.8,4.97.66,9.05-2.77,12.55-6.07,10.16,8.68,14.26,18.88,5.31,31.31ZM406.58,703.68c-5.74-.33-8.78-6.48-15.02-8.56,9.43-2.51,18.54-3.34,27.97.32-2.58,4.24-7.06,8.59-12.95,8.25Z"/>
</svg>